<mxfile host="app.diagrams.net" modified="2023-03-23T17:36:58.982Z" agent="5.0 (Windows NT 10.0; Win64; x64) AppleWebKit/537.36 (KHTML, like Gecko) Chrome/111.0.0.0 Safari/537.36 Edg/111.0.1661.44" etag="NaqeM2orhoOnYvnmyjKV" version="21.0.10" type="github">
  <diagram name="Page-1" id="v63S46q5yMBqqZmRK9G6">
    <mxGraphModel dx="1961" dy="671" grid="1" gridSize="11" guides="1" tooltips="1" connect="1" arrows="1" fold="1" page="1" pageScale="1" pageWidth="827" pageHeight="1169" math="0" shadow="0">
      <root>
        <mxCell id="0" />
        <mxCell id="1" parent="0" />
        <mxCell id="esFvUMw4x8bWNT_ROYQ_-32" value="" style="rounded=0;whiteSpace=wrap;html=1;dashed=1;fontStyle=1;fillColor=#f5f5f5;strokeColor=#666666;fillStyle=solid;fontColor=#333333;" vertex="1" parent="1">
          <mxGeometry x="-176" y="528" width="209" height="649" as="geometry" />
        </mxCell>
        <mxCell id="vw22RqHtb2KoScnF9Mjw-39" value="" style="rounded=0;whiteSpace=wrap;html=1;fillColor=none;" parent="1" vertex="1">
          <mxGeometry x="58" y="528" width="910" height="651" as="geometry" />
        </mxCell>
        <mxCell id="esFvUMw4x8bWNT_ROYQ_-31" value="" style="rounded=0;whiteSpace=wrap;html=1;fillColor=#d0cee2;dashed=1;fontStyle=1;strokeColor=#56517e;" vertex="1" parent="1">
          <mxGeometry x="88" y="1036" width="836" height="86" as="geometry" />
        </mxCell>
        <mxCell id="esFvUMw4x8bWNT_ROYQ_-29" value="" style="rounded=0;whiteSpace=wrap;html=1;fillColor=#dae8fc;dashed=1;fontStyle=1;strokeColor=#6c8ebf;" vertex="1" parent="1">
          <mxGeometry x="431" y="616" width="144" height="396" as="geometry" />
        </mxCell>
        <mxCell id="esFvUMw4x8bWNT_ROYQ_-27" value="" style="rounded=0;whiteSpace=wrap;html=1;fillColor=#fff2cc;dashed=1;fontStyle=1;strokeColor=#d6b656;" vertex="1" parent="1">
          <mxGeometry x="253.25" y="800" width="144" height="212" as="geometry" />
        </mxCell>
        <mxCell id="vw22RqHtb2KoScnF9Mjw-14" value="" style="rounded=0;whiteSpace=wrap;html=1;fillColor=#ffe6cc;dashed=1;fontStyle=1;strokeColor=#d79b00;" parent="1" vertex="1">
          <mxGeometry x="88" y="617" width="308" height="135" as="geometry" />
        </mxCell>
        <mxCell id="vw22RqHtb2KoScnF9Mjw-25" value="" style="rounded=0;whiteSpace=wrap;html=1;fillColor=#f8cecc;dashed=1;fontStyle=1;gradientColor=#ea6b66;strokeColor=#b85450;" parent="1" vertex="1">
          <mxGeometry x="635" y="869" width="280" height="141" as="geometry" />
        </mxCell>
        <mxCell id="vw22RqHtb2KoScnF9Mjw-13" value="" style="rounded=0;whiteSpace=wrap;html=1;fillColor=#d5e8d4;dashed=1;fontStyle=1;gradientColor=#97d077;strokeColor=#82b366;" parent="1" vertex="1">
          <mxGeometry x="635.5" y="616" width="280" height="220" as="geometry" />
        </mxCell>
        <mxCell id="vw22RqHtb2KoScnF9Mjw-10" value="" style="rounded=0;whiteSpace=wrap;html=1;fillColor=#d5e8d4;dashed=1;fontStyle=1;strokeColor=#82b366;" parent="1" vertex="1">
          <mxGeometry x="87" y="800" width="144" height="212" as="geometry" />
        </mxCell>
        <mxCell id="0xS_EjlW5Ho_wa0NnR8M-2" value="" style="sketch=0;points=[[0,0,0],[0.25,0,0],[0.5,0,0],[0.75,0,0],[1,0,0],[0,1,0],[0.25,1,0],[0.5,1,0],[0.75,1,0],[1,1,0],[0,0.25,0],[0,0.5,0],[0,0.75,0],[1,0.25,0],[1,0.5,0],[1,0.75,0]];outlineConnect=0;fontColor=#232F3E;gradientColor=#60A337;gradientDirection=north;fillColor=#277116;strokeColor=#ffffff;dashed=0;verticalLabelPosition=bottom;verticalAlign=top;align=center;html=1;fontSize=12;fontStyle=1;aspect=fixed;shape=mxgraph.aws4.resourceIcon;resIcon=mxgraph.aws4.glacier;" parent="1" vertex="1">
          <mxGeometry x="298" y="635" width="78" height="78" as="geometry" />
        </mxCell>
        <mxCell id="vw22RqHtb2KoScnF9Mjw-20" style="edgeStyle=orthogonalEdgeStyle;rounded=0;orthogonalLoop=1;jettySize=auto;html=1;fontStyle=1" parent="1" source="0xS_EjlW5Ho_wa0NnR8M-3" target="0xS_EjlW5Ho_wa0NnR8M-11" edge="1">
          <mxGeometry relative="1" as="geometry" />
        </mxCell>
        <mxCell id="vw22RqHtb2KoScnF9Mjw-40" style="edgeStyle=orthogonalEdgeStyle;rounded=0;orthogonalLoop=1;jettySize=auto;html=1;exitX=0.5;exitY=0;exitDx=0;exitDy=0;exitPerimeter=0;entryX=0.5;entryY=1;entryDx=0;entryDy=0;entryPerimeter=0;fontStyle=1" parent="1" source="0xS_EjlW5Ho_wa0NnR8M-3" target="0xS_EjlW5Ho_wa0NnR8M-4" edge="1">
          <mxGeometry relative="1" as="geometry" />
        </mxCell>
        <mxCell id="0xS_EjlW5Ho_wa0NnR8M-3" value="" style="sketch=0;points=[[0,0,0],[0.25,0,0],[0.5,0,0],[0.75,0,0],[1,0,0],[0,1,0],[0.25,1,0],[0.5,1,0],[0.75,1,0],[1,1,0],[0,0.25,0],[0,0.5,0],[0,0.75,0],[1,0.25,0],[1,0.5,0],[1,0.75,0]];outlineConnect=0;fontColor=#232F3E;gradientColor=#945DF2;gradientDirection=north;fillColor=#5A30B5;strokeColor=#ffffff;dashed=0;verticalLabelPosition=bottom;verticalAlign=top;align=center;html=1;fontSize=12;fontStyle=1;aspect=fixed;shape=mxgraph.aws4.resourceIcon;resIcon=mxgraph.aws4.kinesis_data_streams;" parent="1" vertex="1">
          <mxGeometry x="119" y="826" width="78" height="78" as="geometry" />
        </mxCell>
        <mxCell id="vw22RqHtb2KoScnF9Mjw-41" style="edgeStyle=orthogonalEdgeStyle;rounded=0;orthogonalLoop=1;jettySize=auto;html=1;exitX=1;exitY=0.5;exitDx=0;exitDy=0;exitPerimeter=0;entryX=0;entryY=0.5;entryDx=0;entryDy=0;entryPerimeter=0;fontStyle=1" parent="1" source="0xS_EjlW5Ho_wa0NnR8M-4" target="0xS_EjlW5Ho_wa0NnR8M-2" edge="1">
          <mxGeometry relative="1" as="geometry" />
        </mxCell>
        <mxCell id="0xS_EjlW5Ho_wa0NnR8M-4" value="" style="sketch=0;points=[[0,0,0],[0.25,0,0],[0.5,0,0],[0.75,0,0],[1,0,0],[0,1,0],[0.25,1,0],[0.5,1,0],[0.75,1,0],[1,1,0],[0,0.25,0],[0,0.5,0],[0,0.75,0],[1,0.25,0],[1,0.5,0],[1,0.75,0]];outlineConnect=0;fontColor=#232F3E;gradientColor=#F78E04;gradientDirection=north;fillColor=#D05C17;strokeColor=#ffffff;dashed=0;verticalLabelPosition=bottom;verticalAlign=top;align=center;html=1;fontSize=12;fontStyle=1;aspect=fixed;shape=mxgraph.aws4.resourceIcon;resIcon=mxgraph.aws4.lambda;" parent="1" vertex="1">
          <mxGeometry x="118" y="634" width="78" height="78" as="geometry" />
        </mxCell>
        <mxCell id="vw22RqHtb2KoScnF9Mjw-24" style="edgeStyle=orthogonalEdgeStyle;rounded=0;orthogonalLoop=1;jettySize=auto;html=1;exitX=1;exitY=0.5;exitDx=0;exitDy=0;exitPerimeter=0;fontStyle=1" parent="1" source="0xS_EjlW5Ho_wa0NnR8M-9" target="vw22RqHtb2KoScnF9Mjw-3" edge="1">
          <mxGeometry relative="1" as="geometry" />
        </mxCell>
        <mxCell id="esFvUMw4x8bWNT_ROYQ_-50" style="edgeStyle=orthogonalEdgeStyle;rounded=0;orthogonalLoop=1;jettySize=auto;html=1;exitX=1;exitY=0.5;exitDx=0;exitDy=0;exitPerimeter=0;" edge="1" parent="1" source="0xS_EjlW5Ho_wa0NnR8M-9" target="vw22RqHtb2KoScnF9Mjw-5">
          <mxGeometry relative="1" as="geometry" />
        </mxCell>
        <mxCell id="0xS_EjlW5Ho_wa0NnR8M-9" value="" style="sketch=0;points=[[0,0,0],[0.25,0,0],[0.5,0,0],[0.75,0,0],[1,0,0],[0,1,0],[0.25,1,0],[0.5,1,0],[0.75,1,0],[1,1,0],[0,0.25,0],[0,0.5,0],[0,0.75,0],[1,0.25,0],[1,0.5,0],[1,0.75,0]];outlineConnect=0;fontColor=#232F3E;gradientColor=#4AB29A;gradientDirection=north;fillColor=#116D5B;strokeColor=#ffffff;dashed=0;verticalLabelPosition=bottom;verticalAlign=top;align=center;html=1;fontSize=12;fontStyle=1;aspect=fixed;shape=mxgraph.aws4.resourceIcon;resIcon=mxgraph.aws4.sagemaker;" parent="1" vertex="1">
          <mxGeometry x="647.5" y="690.5" width="78" height="78" as="geometry" />
        </mxCell>
        <mxCell id="vw22RqHtb2KoScnF9Mjw-23" style="edgeStyle=orthogonalEdgeStyle;rounded=0;orthogonalLoop=1;jettySize=auto;html=1;exitX=1;exitY=0.5;exitDx=0;exitDy=0;exitPerimeter=0;entryX=0;entryY=0.5;entryDx=0;entryDy=0;entryPerimeter=0;fontStyle=1" parent="1" source="0xS_EjlW5Ho_wa0NnR8M-10" target="0xS_EjlW5Ho_wa0NnR8M-9" edge="1">
          <mxGeometry relative="1" as="geometry" />
        </mxCell>
        <mxCell id="esFvUMw4x8bWNT_ROYQ_-42" style="edgeStyle=orthogonalEdgeStyle;rounded=0;orthogonalLoop=1;jettySize=auto;html=1;exitX=0.5;exitY=0;exitDx=0;exitDy=0;exitPerimeter=0;" edge="1" parent="1" source="0xS_EjlW5Ho_wa0NnR8M-10" target="esFvUMw4x8bWNT_ROYQ_-33">
          <mxGeometry relative="1" as="geometry" />
        </mxCell>
        <mxCell id="0xS_EjlW5Ho_wa0NnR8M-10" value="" style="sketch=0;points=[[0,0,0],[0.25,0,0],[0.5,0,0],[0.75,0,0],[1,0,0],[0,1,0],[0.25,1,0],[0.5,1,0],[0.75,1,0],[1,1,0],[0,0.25,0],[0,0.5,0],[0,0.75,0],[1,0.25,0],[1,0.5,0],[1,0.75,0]];outlineConnect=0;fontColor=#232F3E;gradientColor=#F78E04;gradientDirection=north;fillColor=#D05C17;strokeColor=#ffffff;dashed=0;verticalLabelPosition=bottom;verticalAlign=top;align=center;html=1;fontSize=12;fontStyle=1;aspect=fixed;shape=mxgraph.aws4.resourceIcon;resIcon=mxgraph.aws4.lambda;" parent="1" vertex="1">
          <mxGeometry x="472" y="826.5" width="80" height="80" as="geometry" />
        </mxCell>
        <mxCell id="vw22RqHtb2KoScnF9Mjw-21" style="edgeStyle=orthogonalEdgeStyle;rounded=0;orthogonalLoop=1;jettySize=auto;html=1;exitX=1;exitY=0.5;exitDx=0;exitDy=0;exitPerimeter=0;entryX=0;entryY=0.5;entryDx=0;entryDy=0;entryPerimeter=0;fontStyle=1" parent="1" source="0xS_EjlW5Ho_wa0NnR8M-11" target="0xS_EjlW5Ho_wa0NnR8M-10" edge="1">
          <mxGeometry relative="1" as="geometry" />
        </mxCell>
        <mxCell id="0xS_EjlW5Ho_wa0NnR8M-11" value="" style="sketch=0;points=[[0,0,0],[0.25,0,0],[0.5,0,0],[0.75,0,0],[1,0,0],[0,1,0],[0.25,1,0],[0.5,1,0],[0.75,1,0],[1,1,0],[0,0.25,0],[0,0.5,0],[0,0.75,0],[1,0.25,0],[1,0.5,0],[1,0.75,0]];outlineConnect=0;fontColor=#232F3E;gradientColor=#945DF2;gradientDirection=north;fillColor=#5A30B5;strokeColor=#ffffff;dashed=0;verticalLabelPosition=bottom;verticalAlign=top;align=center;html=1;fontSize=12;fontStyle=1;aspect=fixed;shape=mxgraph.aws4.resourceIcon;resIcon=mxgraph.aws4.kinesis_data_analytics;" parent="1" vertex="1">
          <mxGeometry x="295" y="827" width="78" height="78" as="geometry" />
        </mxCell>
        <mxCell id="vw22RqHtb2KoScnF9Mjw-3" value="Amazon Elasticsearch Service" style="sketch=0;outlineConnect=0;strokeColor=#FFFFFF;fillColor=#5A30B5;dashed=0;verticalLabelPosition=middle;verticalAlign=bottom;align=center;html=1;whiteSpace=wrap;fontSize=10;fontStyle=1;spacing=3;shape=mxgraph.aws4.productIcon;prIcon=mxgraph.aws4.elasticsearch_service;gradientColor=#945DF2;gradientDirection=north;fontColor=none;noLabel=1;" parent="1" vertex="1">
          <mxGeometry x="805.5" y="691" width="82.5" height="77" as="geometry" />
        </mxCell>
        <mxCell id="esFvUMw4x8bWNT_ROYQ_-23" style="edgeStyle=orthogonalEdgeStyle;rounded=0;orthogonalLoop=1;jettySize=auto;html=1;" edge="1" parent="1" source="vw22RqHtb2KoScnF9Mjw-5">
          <mxGeometry relative="1" as="geometry">
            <mxPoint x="994" y="941" as="targetPoint" />
          </mxGeometry>
        </mxCell>
        <mxCell id="vw22RqHtb2KoScnF9Mjw-5" value="" style="outlineConnect=0;dashed=0;verticalLabelPosition=bottom;verticalAlign=top;align=center;html=1;shape=mxgraph.aws3.ec2;fillColor=#F58534;gradientColor=none;fontStyle=1" parent="1" vertex="1">
          <mxGeometry x="734" y="895" width="67.5" height="91" as="geometry" />
        </mxCell>
        <mxCell id="vw22RqHtb2KoScnF9Mjw-11" value="Transform" style="text;html=1;strokeColor=none;fillColor=none;align=center;verticalAlign=middle;whiteSpace=wrap;rounded=0;fontStyle=1;fontSize=22;" parent="1" vertex="1">
          <mxGeometry x="298" y="766" width="60" height="44" as="geometry" />
        </mxCell>
        <mxCell id="vw22RqHtb2KoScnF9Mjw-12" value="Insights" style="text;html=1;strokeColor=none;fillColor=none;align=center;verticalAlign=middle;whiteSpace=wrap;rounded=0;fontStyle=1;fontSize=22;" parent="1" vertex="1">
          <mxGeometry x="748" y="593" width="60" height="22.5" as="geometry" />
        </mxCell>
        <mxCell id="vw22RqHtb2KoScnF9Mjw-15" value="&lt;font style=&quot;font-size: 22px;&quot;&gt;Store&lt;/font&gt;" style="text;html=1;strokeColor=none;fillColor=none;align=center;verticalAlign=middle;whiteSpace=wrap;rounded=0;fontStyle=1" parent="1" vertex="1">
          <mxGeometry x="175.5" y="585" width="85" height="44" as="geometry" />
        </mxCell>
        <mxCell id="vw22RqHtb2KoScnF9Mjw-29" value="" style="sketch=0;points=[[0,0,0],[0.25,0,0],[0.5,0,0],[0.75,0,0],[1,0,0],[0,1,0],[0.25,1,0],[0.5,1,0],[0.75,1,0],[1,1,0],[0,0.25,0],[0,0.5,0],[0,0.75,0],[1,0.25,0],[1,0.5,0],[1,0.75,0]];points=[[0,0,0],[0.25,0,0],[0.5,0,0],[0.75,0,0],[1,0,0],[0,1,0],[0.25,1,0],[0.5,1,0],[0.75,1,0],[1,1,0],[0,0.25,0],[0,0.5,0],[0,0.75,0],[1,0.25,0],[1,0.5,0],[1,0.75,0]];outlineConnect=0;fontColor=#232F3E;gradientColor=#F34482;gradientDirection=north;fillColor=#BC1356;strokeColor=#ffffff;dashed=0;verticalLabelPosition=bottom;verticalAlign=top;align=center;html=1;fontSize=12;fontStyle=1;aspect=fixed;shape=mxgraph.aws4.resourceIcon;resIcon=mxgraph.aws4.cloudwatch_2;" parent="1" vertex="1">
          <mxGeometry x="684" y="1048" width="64" height="64" as="geometry" />
        </mxCell>
        <mxCell id="esFvUMw4x8bWNT_ROYQ_-1" value="SageMaker" style="text;html=1;strokeColor=none;fillColor=none;align=center;verticalAlign=middle;whiteSpace=wrap;rounded=0;fontStyle=1" vertex="1" parent="1">
          <mxGeometry x="656.5" y="772" width="60" height="22.5" as="geometry" />
        </mxCell>
        <mxCell id="esFvUMw4x8bWNT_ROYQ_-2" value="OpenSeach" style="text;html=1;strokeColor=none;fillColor=none;align=center;verticalAlign=middle;whiteSpace=wrap;rounded=0;fontStyle=1" vertex="1" parent="1">
          <mxGeometry x="814.75" y="773" width="60" height="22.5" as="geometry" />
        </mxCell>
        <mxCell id="esFvUMw4x8bWNT_ROYQ_-4" value="Amazon EC2" style="text;html=1;strokeColor=none;fillColor=none;align=center;verticalAlign=middle;whiteSpace=wrap;rounded=0;fontStyle=1" vertex="1" parent="1">
          <mxGeometry x="730.25" y="988" width="80.75" height="22.5" as="geometry" />
        </mxCell>
        <mxCell id="esFvUMw4x8bWNT_ROYQ_-6" value="Lambda" style="text;html=1;strokeColor=none;fillColor=none;align=center;verticalAlign=middle;whiteSpace=wrap;rounded=0;fontStyle=1" vertex="1" parent="1">
          <mxGeometry x="478" y="908" width="60" height="22.5" as="geometry" />
        </mxCell>
        <mxCell id="esFvUMw4x8bWNT_ROYQ_-7" value="CloudWatch" style="text;html=1;strokeColor=none;fillColor=none;align=center;verticalAlign=middle;whiteSpace=wrap;rounded=0;fontStyle=1" vertex="1" parent="1">
          <mxGeometry x="761" y="1094.5" width="60" height="22.5" as="geometry" />
        </mxCell>
        <mxCell id="esFvUMw4x8bWNT_ROYQ_-8" value="Kinesis Data Anaytics" style="text;html=1;strokeColor=none;fillColor=none;align=center;verticalAlign=middle;whiteSpace=wrap;rounded=0;fontStyle=1" vertex="1" parent="1">
          <mxGeometry x="293.25" y="916" width="80.75" height="22.5" as="geometry" />
        </mxCell>
        <mxCell id="esFvUMw4x8bWNT_ROYQ_-9" value="Kinesis" style="text;html=1;strokeColor=none;fillColor=none;align=center;verticalAlign=middle;whiteSpace=wrap;rounded=0;fontStyle=1" vertex="1" parent="1">
          <mxGeometry x="125" y="907" width="60" height="22.5" as="geometry" />
        </mxCell>
        <mxCell id="esFvUMw4x8bWNT_ROYQ_-10" value="S3 Glacier" style="text;html=1;strokeColor=none;fillColor=none;align=center;verticalAlign=middle;whiteSpace=wrap;rounded=0;fontStyle=1" vertex="1" parent="1">
          <mxGeometry x="300" y="715" width="70" height="22.5" as="geometry" />
        </mxCell>
        <mxCell id="esFvUMw4x8bWNT_ROYQ_-11" value="Lambda" style="text;html=1;strokeColor=none;fillColor=none;align=center;verticalAlign=middle;whiteSpace=wrap;rounded=0;fontStyle=1" vertex="1" parent="1">
          <mxGeometry x="124" y="716" width="60" height="22.5" as="geometry" />
        </mxCell>
        <mxCell id="esFvUMw4x8bWNT_ROYQ_-20" style="edgeStyle=orthogonalEdgeStyle;rounded=0;orthogonalLoop=1;jettySize=auto;html=1;entryX=0;entryY=0.5;entryDx=0;entryDy=0;entryPerimeter=0;fontStyle=1" edge="1" parent="1" source="esFvUMw4x8bWNT_ROYQ_-13" target="0xS_EjlW5Ho_wa0NnR8M-3">
          <mxGeometry relative="1" as="geometry" />
        </mxCell>
        <mxCell id="esFvUMw4x8bWNT_ROYQ_-13" value="Camera" style="sketch=0;outlineConnect=0;fontColor=none;gradientColor=none;strokeColor=#232F3E;fillColor=#ffffff;dashed=0;verticalLabelPosition=bottom;verticalAlign=top;align=center;html=1;fontSize=12;fontStyle=1;aspect=fixed;shape=mxgraph.aws4.resourceIcon;resIcon=mxgraph.aws4.camera;noLabel=1;" vertex="1" parent="1">
          <mxGeometry x="-130" y="697" width="60" height="60" as="geometry" />
        </mxCell>
        <mxCell id="esFvUMw4x8bWNT_ROYQ_-21" style="edgeStyle=orthogonalEdgeStyle;rounded=0;orthogonalLoop=1;jettySize=auto;html=1;entryX=0;entryY=0.5;entryDx=0;entryDy=0;entryPerimeter=0;fontStyle=1" edge="1" parent="1" source="esFvUMw4x8bWNT_ROYQ_-15" target="0xS_EjlW5Ho_wa0NnR8M-3">
          <mxGeometry relative="1" as="geometry" />
        </mxCell>
        <mxCell id="esFvUMw4x8bWNT_ROYQ_-15" value="Thermostat" style="sketch=0;outlineConnect=0;fontColor=none;gradientColor=none;strokeColor=#232F3E;fillColor=#ffffff;dashed=0;verticalLabelPosition=bottom;verticalAlign=top;align=center;html=1;fontSize=12;fontStyle=1;aspect=fixed;shape=mxgraph.aws4.resourceIcon;resIcon=mxgraph.aws4.thermostat;noLabel=1;" vertex="1" parent="1">
          <mxGeometry x="-130" y="834.25" width="60" height="60" as="geometry" />
        </mxCell>
        <mxCell id="esFvUMw4x8bWNT_ROYQ_-22" style="edgeStyle=orthogonalEdgeStyle;rounded=0;orthogonalLoop=1;jettySize=auto;html=1;entryX=0;entryY=0.5;entryDx=0;entryDy=0;entryPerimeter=0;fontStyle=1" edge="1" parent="1" source="esFvUMw4x8bWNT_ROYQ_-16" target="0xS_EjlW5Ho_wa0NnR8M-3">
          <mxGeometry relative="1" as="geometry" />
        </mxCell>
        <mxCell id="esFvUMw4x8bWNT_ROYQ_-16" value="Windfarm" style="sketch=0;outlineConnect=0;fontColor=none;gradientColor=none;strokeColor=#232F3E;fillColor=#ffffff;dashed=0;verticalLabelPosition=bottom;verticalAlign=top;align=center;html=1;fontSize=12;fontStyle=1;aspect=fixed;shape=mxgraph.aws4.resourceIcon;resIcon=mxgraph.aws4.windfarm;noLabel=1;" vertex="1" parent="1">
          <mxGeometry x="-130" y="982.5" width="60" height="60" as="geometry" />
        </mxCell>
        <mxCell id="esFvUMw4x8bWNT_ROYQ_-17" value="Capteurs de Presence" style="text;html=1;strokeColor=none;fillColor=none;align=center;verticalAlign=middle;whiteSpace=wrap;rounded=0;fontStyle=1" vertex="1" parent="1">
          <mxGeometry x="-135" y="755.25" width="70" height="44" as="geometry" />
        </mxCell>
        <mxCell id="esFvUMw4x8bWNT_ROYQ_-18" value="Capteurs de CO2" style="text;html=1;strokeColor=none;fillColor=none;align=center;verticalAlign=middle;whiteSpace=wrap;rounded=0;fontStyle=1" vertex="1" parent="1">
          <mxGeometry x="-135" y="887.5" width="70" height="44" as="geometry" />
        </mxCell>
        <mxCell id="esFvUMw4x8bWNT_ROYQ_-19" value="Système de Ventilation (GTB)" style="text;html=1;strokeColor=none;fillColor=none;align=center;verticalAlign=middle;whiteSpace=wrap;rounded=0;fontStyle=1" vertex="1" parent="1">
          <mxGeometry x="-133" y="1044" width="70" height="44" as="geometry" />
        </mxCell>
        <mxCell id="esFvUMw4x8bWNT_ROYQ_-24" value="Controle SCADA" style="text;html=1;strokeColor=none;fillColor=none;align=center;verticalAlign=middle;whiteSpace=wrap;rounded=0;fontStyle=1;fontSize=22;" vertex="1" parent="1">
          <mxGeometry x="688.25" y="846.25" width="187.75" height="22.5" as="geometry" />
        </mxCell>
        <mxCell id="esFvUMw4x8bWNT_ROYQ_-41" style="edgeStyle=orthogonalEdgeStyle;rounded=0;orthogonalLoop=1;jettySize=auto;html=1;exitX=1;exitY=0.5;exitDx=0;exitDy=0;exitPerimeter=0;entryX=0;entryY=0.5;entryDx=0;entryDy=0;entryPerimeter=0;" edge="1" parent="1" source="esFvUMw4x8bWNT_ROYQ_-33" target="0xS_EjlW5Ho_wa0NnR8M-9">
          <mxGeometry relative="1" as="geometry" />
        </mxCell>
        <mxCell id="esFvUMw4x8bWNT_ROYQ_-33" value="" style="sketch=0;points=[[0,0,0],[0.25,0,0],[0.5,0,0],[0.75,0,0],[1,0,0],[0,1,0],[0.25,1,0],[0.5,1,0],[0.75,1,0],[1,1,0],[0,0.25,0],[0,0.5,0],[0,0.75,0],[1,0.25,0],[1,0.5,0],[1,0.75,0]];outlineConnect=0;fontColor=#232F3E;gradientColor=#945DF2;gradientDirection=north;fillColor=#5A30B5;strokeColor=#ffffff;dashed=0;verticalLabelPosition=bottom;verticalAlign=top;align=center;html=1;fontSize=12;fontStyle=0;aspect=fixed;shape=mxgraph.aws4.resourceIcon;resIcon=mxgraph.aws4.redshift;" vertex="1" parent="1">
          <mxGeometry x="472" y="690" width="78" height="78" as="geometry" />
        </mxCell>
        <mxCell id="esFvUMw4x8bWNT_ROYQ_-34" value="Redshift" style="text;html=1;strokeColor=none;fillColor=none;align=center;verticalAlign=middle;whiteSpace=wrap;rounded=0;fontStyle=1" vertex="1" parent="1">
          <mxGeometry x="476" y="776.5" width="60" height="22.5" as="geometry" />
        </mxCell>
        <mxCell id="esFvUMw4x8bWNT_ROYQ_-39" value="Common" style="text;html=1;strokeColor=none;fillColor=none;align=center;verticalAlign=middle;whiteSpace=wrap;rounded=0;fontStyle=1;fontSize=22;" vertex="1" parent="1">
          <mxGeometry x="112" y="1085" width="60" height="44" as="geometry" />
        </mxCell>
        <mxCell id="esFvUMw4x8bWNT_ROYQ_-40" value="Data source" style="text;html=1;strokeColor=none;fillColor=none;align=center;verticalAlign=middle;whiteSpace=wrap;rounded=0;fontStyle=1;fontSize=22;" vertex="1" parent="1">
          <mxGeometry x="-176" y="1144" width="143" height="44" as="geometry" />
        </mxCell>
        <mxCell id="esFvUMw4x8bWNT_ROYQ_-45" value="Management&amp;nbsp;&amp;nbsp;Managed Workflows for Apache Airflow" style="text;html=1;strokeColor=none;fillColor=none;align=center;verticalAlign=middle;whiteSpace=wrap;rounded=0;fontStyle=1" vertex="1" parent="1">
          <mxGeometry x="506" y="1089.5" width="120" height="22.5" as="geometry" />
        </mxCell>
        <mxCell id="esFvUMw4x8bWNT_ROYQ_-46" value="Landing" style="text;html=1;strokeColor=none;fillColor=none;align=center;verticalAlign=middle;whiteSpace=wrap;rounded=0;fontStyle=1;fontSize=22;" vertex="1" parent="1">
          <mxGeometry x="123" y="765.25" width="60" height="44" as="geometry" />
        </mxCell>
        <mxCell id="esFvUMw4x8bWNT_ROYQ_-51" value="" style="sketch=0;points=[[0,0,0],[0.25,0,0],[0.5,0,0],[0.75,0,0],[1,0,0],[0,1,0],[0.25,1,0],[0.5,1,0],[0.75,1,0],[1,1,0],[0,0.25,0],[0,0.5,0],[0,0.75,0],[1,0.25,0],[1,0.5,0],[1,0.75,0]];outlineConnect=0;fontColor=#232F3E;gradientColor=#FF4F8B;gradientDirection=north;fillColor=#BC1356;strokeColor=#ffffff;dashed=0;verticalLabelPosition=bottom;verticalAlign=top;align=center;html=1;fontSize=12;fontStyle=0;aspect=fixed;shape=mxgraph.aws4.resourceIcon;resIcon=mxgraph.aws4.managed_workflows_for_apache_airflow;" vertex="1" parent="1">
          <mxGeometry x="429" y="1045" width="67" height="67" as="geometry" />
        </mxCell>
      </root>
    </mxGraphModel>
  </diagram>
</mxfile>
